#!OML:ASF E:\Steps\Project 1\Capture day 1\Session 2\Subject.ASF
:FULLY-SPECIFIED
:DEGREES
459
root 11.3622 16.3583 11.9654 29.4296 -176.626 359.793
lowerback -25.488 -1.05504 -6.51892
upperback -3.09248 -0.180225 -1.85594
thorax 10.7402 -0.665032 1.53253
lowerneck 0.592287 0.102735 -3.36182
upperneck 8.79543 -0.727152 6.75068
head 2.77067 -0.454237 2.78317
rclavicle 1.05356e-014 -4.77083e-014
rhumerus -35.5598 -24.7113 -76.6055
rradius 19.2434
rwrist 15.1252
rhand -11.3797 -52.2721
rfingers 7.12502
rthumb 14.6547 -81.7342
lclavicle 1.05356e-014 -4.77083e-014
lhumerus -27.7277 4.06826 83.5605
lradius 17.8991
lwrist -8.30945
lhand -22.0413 -12.8128
lfingers 7.12502
lthumb 4.36887 17.1222
rfemur -36.6616 11.4742 15.6789
rtibia 13.5168
rfoot -16.3726 -8.28929
rtoes -22.6598
lfemur -33.78 -10.3306 -17.1078
ltibia 18.7237
lfoot 167.686 191.771
ltoes -47.8424
460
root 11.3532 16.3584 11.962 29.4474 -176.612 359.853
lowerback -25.6169 -0.989241 -6.43252
upperback -3.08396 -0.106005 -1.88029
thorax 10.813 -0.629202 1.4791
lowerneck 0.665211 0.103779 -3.36127
upperneck 8.76913 -0.728274 6.76681
head 2.74857 -0.45635 2.78762
rclavicle 2.78299e-015 1.19271e-014
rhumerus -35.2269 -24.0148 -77.1939
rradius 19.7208
rwrist 14.5572
rhand -11.1623 -52.4782
rfingers 7.12502
rthumb 14.8642 -81.925
lclavicle 2.78299e-015 1.19271e-014
lhumerus -27.1766 3.74344 83.8291
lradius 17.982
lwrist -8.23443
lhand -22.0757 -12.8951
lfingers 7.12502
lthumb 4.33563 17.0406
rfemur -36.6188 11.3666 15.7729
rtibia 13.4461
rfoot -16.3028 -8.17112
rtoes -22.4521
lfemur -33.6877 -10.2482 -17.0978
ltibia 18.5305
lfoot 167.76 191.694
ltoes -47.6257
461
root 11.3461 16.3604 11.9578 29.4564 -176.508 359.913
lowerback -25.9204 -0.962908 -6.37237
upperback -2.93719 -0.03614 -1.91579
thorax 11.1383 -0.597759 1.42281
lowerneck 0.732613 0.119767 -3.276
upperneck 8.73267 -0.707103 6.75017
head 2.72146 -0.445258 2.76534
rclavicle 8.15017e-015 -5.88403e-014
rhumerus -34.6903 -23.6047 -77.8249
rradius 20.1401
rwrist 13.73
rhand -11.1839 -52.6185
rfingers 7.12502
rthumb 14.8433 -82.0668
lclavicle 8.15017e-015 -5.88403e-014
lhumerus -26.2448 3.32524 84.0595
lradius 17.7541
lwrist -8.08134
lhand -22.2245 -12.9552
lfingers 7.12502
lthumb 4.19196 16.9833
rfemur -36.5551 11.2862 15.8584
rtibia 13.3642
rfoot -16.3118 -8.15107
rtoes -21.915
lfemur -33.6099 -10.3137 -17.0087
ltibia 18.335
lfoot 167.933 191.693
ltoes -47.7923
462
root 11.3409 16.3632 11.9554 29.4682 -176.376 359.945
lowerback -25.408 -0.895251 -6.33145
upperback -3.31745 -0.0644262 -1.97712
thorax 10.4319 -0.604667 1.33199
lowerneck 0.682869 0.0796627 -3.16565
upperneck 8.79318 -0.766549 6.72138
head 2.75299 -0.471954 2.73495
rclavicle -9.14409e-015 -3.18055e-015
rhumerus -35.0634 -23.0955 -78.1265
rradius 20.6525
rwrist 13.0997
rhand -11.4818 -52.3684
rfingers 7.12502
rthumb 14.5563 -81.8377
lclavicle -9.14409e-015 -3.18055e-015
lhumerus -26.3227 2.53887 84.2507
lradius 17.8708
lwrist -7.54327
lhand -22.1911 -13.1305
lfingers 7.12502
lthumb 4.22428 16.8074
rfemur -36.5046 11.2014 15.9176
rtibia 13.2961
rfoot -16.2913 -8.16936
rtoes -21.6582
lfemur -33.6184 -10.3951 -16.9442
ltibia 18.2805
lfoot 168.051 191.698
ltoes -48.4956
463
root 11.3359 16.3658 11.954 29.3802 -176.26 359.913
lowerback -25.2644 -0.907888 -6.41056
upperback -3.35334 -0.0752791 -1.95467
thorax 10.3154 -0.609597 1.40141
lowerneck 0.692947 0.0780128 -3.164
upperneck 8.79687 -0.768571 6.71448
head 2.75238 -0.473214 2.73223
rclavicle 5.1684e-015 -2.46493e-014
rhumerus -34.8109 -22.5201 -78.5477
rradius 21.1123
rwrist 12.6402
rhand -11.4302 -52.1469
rfingers 7.12502
rthumb 14.606 -81.6126
lclavicle 5.1684e-015 -2.46493e-014
lhumerus -26.0589 1.87573 84.6243
lradius 18.2433
lwrist -6.95862
lhand -21.9488 -12.935
lfingers 7.12502
lthumb 4.45818 16.9981
rfemur -36.351 11.1181 15.9113
rtibia 13.2413
rfoot -16.1801 -8.21702
rtoes -21.365
lfemur -33.4689 -10.401 -16.9958
ltibia 18.149
lfoot 168.227 191.592
ltoes -48.6727
464
root 11.3308 16.3687 11.9511 29.2527 -176.206 359.902
lowerback -25.0739 -0.940551 -6.46999
upperback -3.39844 -0.123728 -1.92652
thorax 10.1667 -0.630615 1.45417
lowerneck 0.718937 0.109912 -3.19264
upperneck 8.80636 -0.724902 6.6952
head 2.74828 -0.453578 2.73176
rclavicle -2.18663e-014 8.66701e-014
rhumerus -34.5635 -21.4031 -79.2037
rradius 21.6075
rwrist 11.7199
rhand -10.9701 -52.4268
rfingers 7.12502
rthumb 15.0493 -81.8598
lclavicle -2.18663e-014 8.66701e-014
lhumerus -25.8165 1.57443 84.8501
lradius 18.5186
lwrist -6.73471
lhand -21.9067 -12.6646
lfingers 7.12502
lthumb 4.49886 17.2676
rfemur -36.1752 11.0493 15.9273
rtibia 13.1975
rfoot -16.0923 -8.19894
rtoes -20.9056
lfemur -33.1816 -10.2556 -17.0915
ltibia 17.8484
lfoot 168.512 191.444
ltoes -48.8346
465
root 11.3258 16.3698 11.9481 29.2244 -176.233 359.974
lowerback -25.0411 -0.94261 -6.46296
upperback -3.44609 -0.143111 -1.88869
thorax 10.0964 -0.639789 1.48717
lowerneck 0.768325 0.15758 -3.25127
upperneck 8.80725 -0.659841 6.68126
head 2.73608 -0.424654 2.73881
rclavicle -1.92821e-014 2.8625e-014
rhumerus -34.3512 -20.2464 -79.8564
rradius 22.1812
rwrist 10.7086
rhand -10.8035 -52.6008
rfingers 7.12502
rthumb 15.2098 -82.0217
lclavicle -1.92821e-014 2.8625e-014
lhumerus -25.4913 1.25777 85.0772
lradius 18.6906
lwrist -6.41398
lhand -22.2613 -12.6202
lfingers 7.12502
lthumb 4.15645 17.319
rfemur -36.1366 10.9856 16.03
rtibia 13.1792
rfoot -16.0472 -8.03115
rtoes -20.4396
lfemur -33.0676 -10.0648 -17.1011
ltibia 17.6877
lfoot 168.6 191.386
ltoes -49.0334
466
root 11.321 16.3693 11.9464 29.2403 -176.256 359.98
lowerback -25.2116 -0.941295 -6.5364
upperback -3.35529 -0.0949457 -1.84379
thorax 10.2861 -0.622353 1.59218
lowerneck 0.780601 0.174386 -3.27762
upperneck 8.7937 -0.634625 6.68039
head 2.72803 -0.412687 2.74363
rclavicle -8.94531e-015 -4.29375e-014
rhumerus -33.96 -19.4076 -80.3932
rradius 22.8276
rwrist 9.7802
rhand -10.9085 -52.2338
rfingers 7.12502
rthumb 15.1086 -81.6624
lclavicle -8.94531e-015 -4.29375e-014
lhumerus -24.9213 0.793084 85.4199
lradius 18.9272
lwrist -5.96025
lhand -22.5674 -12.6908
lfingers 7.12502
lthumb 3.86089 17.254
rfemur -36.1397 10.9309 16.0371
rtibia 13.1665
rfoot -16.0411 -7.95167
rtoes -20.3398
lfemur -33.0678 -10.0168 -17.137
ltibia 17.6894
lfoot 168.566 191.399
ltoes -48.9681
467
root 11.3143 16.3692 11.9425 29.2505 -176.243 359.903
lowerback -25.6442 -0.971356 -6.65206
upperback -3.07726 -0.0189751 -1.82645
thorax 10.8272 -0.597448 1.69501
lowerneck 0.765401 0.186766 -3.25245
upperneck 8.76269 -0.612722 6.67399
head 2.71879 -0.399725 2.73686
rclavicle -9.54166e-015 7.95139e-015
rhumerus -33.2496 -18.8011 -80.9637
rradius 23.408
rwrist 8.88226
rhand -10.9476 -52.2563
rfingers 7.12502
rthumb 15.071 -81.6877
lclavicle -9.54166e-015 7.95139e-015
lhumerus -24.0375 0.621709 85.6416
lradius 19.1392
lwrist -6.11364
lhand -22.0187 -12.4601
lfingers 7.12502
lthumb 4.39069 17.4744
rfemur -36.0899 10.8646 15.9401
rtibia 13.0975
rfoot -16.0474 -7.99792
rtoes -20.7235
lfemur -33.008 -10.0909 -17.2415
ltibia 17.5719
lfoot 168.615 191.379
ltoes -48.9017
468
root 11.3032 16.3696 11.9369 29.2822 -176.24 359.862
lowerback -25.2 -0.872083 -6.49883
upperback -3.44121 -0.0266955 -1.96797
thorax 10.1766 -0.590757 1.45483
lowerneck 0.710623 0.144109 -3.24133
upperneck 8.83206 -0.676864 6.68203
head 2.75603 -0.430875 2.73774
rclavicle 7.55382e-015 -6.20208e-014
rhumerus -33.5718 -18.1801 -81.389
rradius 23.9809
rwrist 8.20557
rhand -11.2274 -52.099
rfingers 7.12502
rthumb 14.8014 -81.5504
lclavicle 7.55382e-015 -6.20208e-014
lhumerus -24.2125 0.322709 85.5976
lradius 19.4935
lwrist -6.42499
lhand -21.1803 -11.4634
lfingers 7.12502
lthumb 5.20023 18.4528
rfemur -36.0304 10.7362 15.9084
rtibia 12.9977
rfoot -16.0244 -7.90782
rtoes -20.9766
lfemur -32.9144 -10.1957 -17.3316
ltibia 17.3932
lfoot 168.638 191.35
ltoes -48.5713
